<?xml version="1.0" encoding="utf-8"?><svg viewBox="0 0 31 31" xmlns="http://www.w3.org/2000/svg" xmlns:xlink="http://www.w3.org/1999/xlink"><style>:root>svg{display:none}:root>svg:target{display:block}</style><svg viewBox="0 0 10 20" id="facebook" xmlns="http://www.w3.org/2000/svg"><path fill-rule="evenodd" clip-rule="evenodd" d="M6.654 19.173H2.563V9.679H.518V6.406h2.045V4.442c0-2.67 1.155-4.258 4.433-4.258h2.73v3.273H8.02c-1.278 0-1.362.458-1.362 1.312l-.005 1.637h3.092l-.362 3.273h-2.73v9.494Z"/></svg><svg viewBox="0 0 31 31" id="steam-icon" xmlns="http://www.w3.org/2000/svg"><path fill-rule="evenodd" clip-rule="evenodd" d="M15.775 30.509c8.319 0 15.062-6.716 15.062-15 0-8.284-6.743-15-15.062-15-8.32 0-15.063 6.716-15.063 15 0 1.528.23 3.003.656 4.392.108.02.284.064.54.139l-.4-6.273c0-.115.195-.17.374-.221.097-.028.19-.054.244-.088.145-.092 3.137.996 3.296 1.068l3.826 1.724a4.932 4.932 0 0 1 3.332-.703l3.477-4.222c.043-3.37 2.803-6.084 6.198-6.089 3.172.034 5.801 2.44 6.102 5.574.32 3.389-2.18 6.393-5.589 6.715l-5.791 4.116a5.121 5.121 0 0 1-3.405 3.87c-2.687.905-5.607-.53-6.513-3.206l-2.014-.664c-.15-.048-2.891-1.183-3.634-1.6a15.063 15.063 0 0 0 14.364 10.468Zm9.58-19.112a3.09 3.09 0 0 1-3.1 3.081 3.09 3.09 0 0 1-3.099-3.08 3.09 3.09 0 0 1 3.1-3.081 3.09 3.09 0 0 1 3.099 3.08Zm-1.031 0a2.062 2.062 0 0 1-2.068 2.056 2.062 2.062 0 0 1-2.068-2.056c0-1.135.926-2.055 2.068-2.055s2.068.92 2.068 2.055ZM10.58 23.412c.417.202.877.308 1.342.308.353 0 .697-.058 1.036-.168a3.074 3.074 0 0 0 .33-5.685.518.518 0 0 0-.693.236.512.512 0 0 0 .237.688 2.045 2.045 0 0 1 .988 2.816 2.07 2.07 0 0 1-2.784.88.518.518 0 0 0-.693.237.512.512 0 0 0 .237.688Z"/></svg><svg viewBox="0 0 20 19" id="twitch" xmlns="http://www.w3.org/2000/svg"><path fill-rule="evenodd" clip-rule="evenodd" d="M19.96 13.625V.68H2.94L.81 2.977v12.11h5.32v3.758h2.34l2.553-2.714h6.383l2.553-2.506Zm-12.553-.209H4.003A.423.423 0 0 1 3.577 13V2.769c0-.23.192-.418.426-.418H17.62c.234 0 .425.188.425.417v7.934a.41.41 0 0 1-.122.298l-2.34 2.296a.435.435 0 0 1-.304.12h-3.91L8.073 15.64a.43.43 0 0 1-.436.026.412.412 0 0 1-.23-.37v-1.88Z"/><path d="M13.79 9.763V5.587h-1.702v4.176h1.702Zm-4.255 0V5.587H7.833v4.176h1.702Z"/></svg><svg viewBox="0 0 22 17" id="twitter" xmlns="http://www.w3.org/2000/svg"><path fill-rule="evenodd" clip-rule="evenodd" d="M21.214 2.43a9.062 9.062 0 0 1-2.475.635c.89-.5 1.573-1.292 1.895-2.234a9.05 9.05 0 0 1-2.738.98A4.437 4.437 0 0 0 14.75.535c-2.38 0-4.311 1.809-4.311 4.039 0 .317.038.626.112.92-3.582-.168-6.758-1.776-8.884-4.22a3.829 3.829 0 0 0-.583 2.032c0 1.4.76 2.638 1.917 3.362a4.527 4.527 0 0 1-1.952-.506v.052c0 1.957 1.485 3.589 3.457 3.96a4.696 4.696 0 0 1-1.946.07c.548 1.603 2.14 2.772 4.026 2.805a9.023 9.023 0 0 1-5.353 1.728c-.348 0-.691-.02-1.028-.056a12.81 12.81 0 0 0 6.607 1.815c7.928 0 12.263-6.156 12.263-11.493 0-.176-.005-.35-.013-.523a8.503 8.503 0 0 0 2.15-2.09Z"/></svg><svg viewBox="0 0 31 31" id="xbox-icon" xmlns="http://www.w3.org/2000/svg"><path d="M10.551 3.158a22.246 22.246 0 0 1 4.56 2.444c.164.112.351.17.54.17a.964.964 0 0 0 .539-.17 22.27 22.27 0 0 1 4.56-2.45.935.935 0 0 0 .592-.879.925.925 0 0 0-.605-.867C17.57.205 13.732.205 10.57 1.406a.944.944 0 0 0-.018 1.752Z"/><path d="M24.159 3.164a.94.94 0 0 0-1.004-.041 40.987 40.987 0 0 0-5.052 3.434.942.942 0 0 0-.064 1.412c3.32 3.16 7.921 12.847 8.977 17.3-2.288-3.867-7.393-12.969-10.731-16.08a.942.942 0 0 0-1.28 0C11.661 12.3 6.574 21.406 4.285 25.28 5.342 20.827 9.93 11.128 13.251 7.97a.933.933 0 0 0-.059-1.412A41.445 41.445 0 0 0 8.14 3.123a.941.941 0 0 0-1.003.04A14.992 14.992 0 0 0 .624 15.507c0 3.598 1.297 7.068 3.661 9.775a14.897 14.897 0 0 0 11.36 5.228c4.395 0 8.537-1.905 11.371-5.233a14.849 14.849 0 0 0 3.65-9.77c0-4.923-2.435-9.535-6.507-12.342Z"/></svg><svg viewBox="0 0 26 19" id="youtube" xmlns="http://www.w3.org/2000/svg"><path d="M20.61.184H5.99C3.126.184.8 2.55.8 5.464v7.433c0 2.92 2.326 5.281 5.19 5.281h14.615c2.868 0 5.19-2.367 5.19-5.28V5.463C25.8 2.551 23.472.184 20.61.184Zm-3.514 9.364-6.838 3.316a.272.272 0 0 1-.39-.254V5.768c0-.21.216-.342.395-.248L17.1 9.046c.206.104.201.402-.005.502Z"/></svg></svg>